<?xml version="1.0" standalone="no"?>
<!DOCTYPE svg PUBLIC "-//W3C//DTD SVG 20010904//EN"
 "http://www.w3.org/TR/2001/REC-SVG-20010904/DTD/svg10.dtd">
<svg version="1.0" xmlns="http://www.w3.org/2000/svg"
 width="1400.000000pt" height="1400.000000pt" viewBox="0 0 1400.000000 1400.000000"
 preserveAspectRatio="xMidYMid meet">
<metadata>
Created by potrace 1.14, written by Peter Selinger 2001-2017
</metadata>
<g transform="translate(0.000000,1400.000000) scale(0.100000,-0.100000)"
fill="#000000" stroke="none">
<path d="M10520 12951 c-223 -224 -408 -406 -412 -404 -5 2 -8 -1 -8 -8 0 -15
-71 -80 -81 -73 -5 3 -6 -3 -2 -12 5 -14 3 -16 -11 -11 -13 5 -17 3 -13 -7 6
-15 -14 -28 -46 -31 -12 -2 -16 2 -12 13 4 12 3 13 -10 2 -21 -17 -19 -30 5
-25 11 2 23 -1 26 -7 4 -6 3 -8 -3 -5 -13 8 -65 -27 -56 -38 5 -4 -2 -2 -15 4
-12 7 -21 15 -18 19 2 4 -2 16 -10 27 -8 10 -14 14 -14 7 0 -6 -15 2 -32 19
-28 25 -53 35 -81 30 -4 -1 -12 10 -17 24 -11 30 -20 33 -13 5 4 -15 2 -19
-10 -14 -9 3 -18 11 -20 17 -2 7 -3 4 -2 -5 2 -9 -4 -19 -13 -23 -9 -3 -13 -3
-10 1 4 3 1 13 -7 20 -20 20 -27 17 -15 -7 7 -11 9 -23 6 -27 -3 -3 -6 1 -6 8
0 9 -5 8 -19 -4 -14 -13 -21 -14 -27 -5 -4 7 -3 10 3 6 6 -4 17 0 24 9 11 14
11 18 -4 29 -9 6 -14 15 -10 18 3 4 -4 5 -16 2 -11 -2 -21 0 -21 5 0 4 -8 7
-17 6 -10 -2 -21 1 -24 6 -3 5 -9 2 -12 -7 -4 -9 -3 -13 3 -10 6 3 10 2 10 -2
0 -5 -9 -14 -20 -21 -12 -7 -20 -8 -20 -2 0 5 5 10 12 10 20 0 -2 14 -27 17
-13 2 -26 -1 -30 -7 -3 -5 -12 -10 -18 -10 -7 0 -4 5 6 11 9 6 15 14 12 20 -4
5 2 6 11 2 12 -4 15 -3 10 6 -4 6 -3 17 2 24 8 9 1 12 -28 11 -22 0 -37 3 -34
8 5 7 -19 12 -53 11 -7 -1 -10 3 -7 8 3 5 -4 9 -15 9 -11 0 -23 5 -26 10 -3 6
-20 10 -37 10 -26 0 -29 2 -18 15 11 13 10 14 -4 9 -20 -8 -69 4 -62 15 3 4
-5 7 -19 6 -13 -2 -26 3 -29 10 -2 7 -13 11 -23 9 -10 -3 -32 2 -48 10 -15 8
-33 12 -38 9 -6 -3 -7 -1 -3 5 5 8 -2 12 -21 12 -16 0 -33 4 -39 10 -5 5 -22
11 -36 12 -15 1 -24 6 -22 10 3 4 -9 8 -26 8 -33 0 -64 22 -52 36 4 5 -1 2
-11 -5 -14 -11 -23 -11 -43 -2 -14 6 -36 11 -49 11 -13 0 -27 5 -30 10 -3 6
-22 10 -41 10 -19 0 -34 5 -34 10 0 6 -15 10 -32 10 -18 0 -64 9 -103 20 -38
11 -82 20 -97 20 -16 0 -28 4 -28 9 0 5 -24 12 -52 15 -112 15 -128 18 -128
27 0 5 -22 9 -50 9 -27 0 -50 5 -50 10 0 6 -25 10 -56 10 -30 0 -53 4 -50 8 3
5 -25 10 -62 11 -36 1 -69 6 -72 10 -3 5 -57 11 -120 15 -244 14 -295 18 -301
28 -3 5 -118 8 -287 6 -183 -2 -282 1 -282 7 0 7 -3 6 -8 0 -9 -13 -122 -13
-141 -1 -9 6 -12 5 -8 -1 8 -12 -138 -26 -239 -22 -45 2 -69 -1 -72 -9 -2 -8
-30 -12 -77 -12 -41 0 -77 -4 -80 -10 -3 -5 -33 -10 -66 -10 -32 0 -59 -4 -59
-9 0 -5 -30 -9 -67 -10 -38 0 -69 -5 -71 -11 -2 -5 -21 -10 -43 -10 -21 0 -39
-4 -39 -10 0 -5 -20 -10 -44 -10 -25 0 -48 -4 -51 -10 -3 -5 -24 -10 -46 -10
-21 0 -39 -4 -39 -10 0 -5 -22 -10 -50 -10 -27 0 -50 -4 -50 -10 0 -5 -15 -10
-33 -10 -19 0 -37 -3 -41 -7 -10 -10 -96 -32 -128 -33 -15 0 -30 -4 -33 -10
-3 -5 -24 -10 -46 -10 -21 0 -39 -4 -39 -10 0 -5 -13 -10 -30 -10 -16 0 -30
-4 -30 -10 0 -5 -13 -10 -30 -10 -16 0 -30 -4 -30 -10 0 -5 -9 -10 -20 -10
-11 0 -20 -4 -20 -8 0 -4 -17 -9 -37 -10 -21 -2 -40 -7 -43 -11 -9 -15 -48
-31 -74 -31 -14 0 -26 -4 -26 -10 0 -5 -9 -10 -20 -10 -11 0 -20 -4 -20 -10 0
-5 -13 -10 -30 -10 -16 0 -30 -4 -30 -8 0 -4 -21 -13 -48 -20 -26 -8 -55 -18
-64 -23 -10 -5 -25 -9 -33 -9 -8 0 -15 -3 -15 -7 0 -11 -50 -33 -73 -33 -10 0
-15 -4 -12 -10 4 -6 -7 -10 -24 -10 -17 0 -31 -4 -31 -10 0 -5 -9 -10 -20 -10
-11 0 -20 -4 -20 -10 0 -5 -9 -10 -20 -10 -11 0 -20 -4 -20 -10 0 -5 -9 -10
-20 -10 -11 0 -20 -4 -20 -10 0 -5 -12 -10 -26 -10 -15 0 -34 -8 -43 -17 -9
-10 -27 -20 -41 -21 -14 -2 -26 -8 -28 -13 -2 -5 -10 -9 -18 -9 -9 0 -12 -4
-9 -10 3 -5 -2 -10 -12 -10 -10 0 -29 -9 -43 -20 -14 -11 -34 -20 -46 -20 -11
0 -30 -9 -42 -20 -12 -11 -24 -20 -27 -20 -28 1 -35 -1 -30 -10 3 -5 -3 -10
-14 -10 -12 0 -21 -4 -21 -10 0 -5 -9 -10 -20 -10 -11 0 -20 -4 -20 -10 0 -5
-8 -10 -18 -10 -10 0 -24 -9 -32 -20 -8 -11 -22 -20 -32 -20 -10 0 -18 -4 -18
-10 0 -5 -9 -10 -20 -10 -11 0 -20 -4 -20 -10 0 -5 -8 -10 -18 -10 -9 0 -23
-9 -30 -20 -7 -11 -21 -20 -32 -20 -11 0 -20 -4 -20 -10 0 -5 -6 -10 -13 -10
-7 0 -22 -8 -33 -17 -10 -10 -31 -24 -46 -32 -16 -8 -28 -18 -28 -23 0 -4 -8
-8 -18 -8 -10 0 -24 -9 -32 -20 -8 -11 -20 -20 -26 -20 -7 0 -25 -13 -41 -30
-15 -16 -34 -30 -41 -30 -8 0 -27 -13 -42 -30 -15 -16 -34 -30 -42 -30 -7 0
-20 -9 -28 -20 -8 -11 -21 -20 -30 -20 -8 0 -26 -14 -39 -30 -13 -17 -31 -30
-40 -30 -9 0 -31 -18 -50 -40 -19 -22 -41 -40 -49 -40 -8 0 -40 -27 -71 -60
-32 -33 -63 -60 -70 -60 -6 0 -56 -44 -109 -97 -53 -54 -103 -99 -110 -101
-16 -3 -222 -209 -222 -221 0 -5 -45 -55 -100 -111 -55 -56 -100 -106 -100
-111 0 -5 -23 -32 -50 -60 -28 -28 -50 -56 -50 -61 0 -5 -13 -22 -30 -38 -16
-15 -30 -33 -32 -41 -2 -8 -15 -26 -30 -40 -15 -14 -28 -32 -30 -40 -2 -8 -15
-26 -30 -40 -16 -15 -28 -32 -28 -39 0 -7 -13 -25 -30 -40 -16 -15 -30 -35
-30 -45 0 -9 -4 -13 -10 -10 -5 3 -10 0 -10 -9 0 -8 -4 -16 -9 -18 -5 -1 -11
-10 -13 -18 -2 -8 -13 -25 -26 -38 -12 -13 -19 -28 -16 -34 4 -7 2 -8 -4 -4
-7 4 -12 1 -12 -8 0 -9 -4 -16 -10 -16 -5 0 -10 -7 -10 -16 0 -9 -8 -24 -18
-33 -9 -9 -23 -28 -31 -43 -8 -16 -18 -28 -23 -28 -4 0 -8 -7 -8 -16 0 -19
-27 -47 -38 -40 -5 3 -7 -6 -4 -19 2 -15 0 -25 -7 -25 -6 0 -11 -7 -11 -16 0
-9 -10 -25 -22 -35 -11 -11 -16 -19 -9 -19 7 0 0 -12 -14 -26 -14 -14 -23 -30
-20 -35 4 -5 1 -9 -4 -9 -6 0 -11 -9 -11 -19 0 -10 -7 -22 -16 -25 -8 -3 -12
-11 -9 -16 4 -6 -3 -19 -14 -29 -12 -10 -21 -26 -21 -35 0 -9 -4 -16 -10 -16
-5 0 -10 -9 -10 -19 0 -10 -7 -21 -15 -25 -8 -3 -12 -12 -9 -21 3 -8 1 -15 -5
-15 -6 0 -11 -9 -11 -20 0 -11 -7 -20 -16 -20 -8 0 -12 -5 -9 -10 4 -6 1 -18
-7 -27 -11 -14 -11 -16 2 -8 12 6 13 5 2 -6 -6 -7 -12 -22 -12 -33 0 -19 -1
-19 -13 -1 -11 14 -16 15 -22 5 -5 -9 -4 -11 3 -6 16 10 15 -16 0 -33 -10 -11
-10 -13 0 -7 6 4 12 2 12 -3 0 -6 -6 -11 -14 -11 -8 0 -13 -8 -12 -17 0 -10
-4 -18 -11 -18 -6 0 -15 -4 -20 -9 -5 -5 -3 -6 5 -2 8 5 12 0 12 -13 0 -12 -5
-20 -12 -19 -7 2 -12 -6 -12 -17 0 -11 -6 -23 -13 -28 -7 -4 -10 -14 -7 -22 4
-10 0 -15 -12 -15 -12 0 -15 -3 -8 -8 13 -8 2 -46 -15 -56 -6 -4 -8 -13 -4
-21 3 -8 0 -15 -6 -15 -6 0 -11 -14 -11 -31 0 -17 -4 -28 -10 -24 -6 4 -10 -5
-10 -20 0 -22 -4 -26 -17 -21 -15 5 -15 4 1 -9 11 -8 14 -15 8 -15 -7 0 -12
-9 -12 -20 0 -11 -4 -20 -10 -20 -5 0 -10 -13 -10 -30 0 -16 -4 -30 -10 -30
-5 0 -10 -13 -10 -30 0 -16 -4 -30 -10 -30 -5 0 -10 -13 -10 -30 0 -16 -4 -30
-10 -30 -5 0 -10 -13 -10 -30 0 -16 -4 -30 -10 -30 -5 0 -10 -13 -10 -30 0
-16 -4 -30 -10 -30 -5 0 -10 -18 -10 -39 0 -22 -4 -41 -10 -43 -5 -1 -10 -20
-12 -40 -1 -21 -6 -38 -10 -38 -4 0 -8 -16 -8 -36 0 -19 -4 -33 -8 -30 -7 4
-12 -26 -15 -81 0 -7 -4 -13 -9 -13 -4 0 -8 -13 -8 -29 0 -17 -4 -33 -10 -36
-5 -3 -10 -22 -10 -41 0 -19 -4 -34 -10 -34 -5 0 -10 -22 -10 -50 0 -27 -4
-50 -10 -50 -5 0 -10 -22 -10 -50 0 -27 -4 -50 -10 -50 -5 0 -10 -22 -10 -50
0 -27 -4 -50 -10 -50 -6 0 -10 -29 -10 -66 0 -36 -4 -63 -8 -60 -5 3 -10 -25
-11 -62 -1 -36 -6 -69 -10 -72 -5 -3 -11 -57 -14 -120 -3 -63 -11 -185 -17
-270 -20 -266 -12 -1015 10 -1030 7 -5 15 -77 27 -237 3 -46 9 -83 13 -83 4 0
8 -27 9 -61 1 -34 6 -68 11 -78 11 -21 50 -218 50 -254 0 -15 5 -27 10 -27 6
0 10 -10 10 -22 0 -13 9 -57 20 -98 11 -41 20 -89 20 -107 0 -17 4 -33 8 -35
10 -3 52 -166 52 -198 0 -11 5 -20 10 -20 6 0 10 -18 10 -40 0 -22 5 -40 10
-40 6 0 10 -13 10 -30 0 -16 5 -30 10 -30 6 0 10 -13 10 -30 0 -16 5 -30 10
-30 6 0 10 -13 10 -30 0 -16 5 -30 10 -30 6 0 10 -13 10 -30 0 -16 4 -30 8
-30 12 0 32 -46 32 -71 0 -11 7 -27 15 -36 9 -8 19 -28 22 -44 3 -16 8 -29 12
-29 4 0 8 -12 9 -27 1 -15 6 -29 11 -32 15 -10 31 -49 31 -75 0 -14 5 -26 10
-26 6 0 10 -9 10 -20 0 -11 5 -20 10 -20 6 0 10 -9 10 -20 0 -11 3 -20 8 -20
8 0 32 -49 32 -67 0 -7 5 -13 10 -13 6 0 10 -9 10 -20 0 -11 5 -20 10 -20 6 0
10 -9 10 -20 0 -11 5 -20 10 -20 6 0 10 -7 10 -16 0 -9 8 -24 18 -33 22 -21
42 -57 42 -76 0 -8 5 -15 10 -15 6 0 10 -8 10 -18 0 -10 9 -24 20 -32 11 -8
20 -21 20 -29 0 -7 8 -21 17 -30 22 -20 43 -56 43 -73 0 -8 11 -21 24 -32 14
-10 22 -24 19 -32 -3 -8 0 -14 6 -14 6 0 11 -8 11 -18 0 -9 9 -23 20 -30 11
-7 20 -20 20 -30 0 -9 9 -23 20 -30 11 -7 20 -20 20 -30 0 -9 11 -25 24 -36
14 -10 22 -24 19 -32 -3 -8 0 -14 6 -14 6 0 11 -8 11 -17 0 -10 14 -29 30 -42
17 -13 30 -30 30 -38 0 -8 15 -29 32 -46 18 -16 32 -34 30 -39 -1 -5 14 -22
33 -39 19 -17 32 -35 29 -40 -3 -5 8 -21 25 -35 17 -14 31 -33 31 -42 0 -10
14 -28 30 -41 17 -13 30 -30 30 -38 0 -8 28 -41 63 -74 34 -33 61 -64 59 -70
-1 -5 34 -44 78 -87 44 -43 80 -83 80 -90 0 -6 43 -54 95 -106 52 -52 95 -99
95 -104 0 -6 9 -13 19 -17 12 -4 18 -12 14 -21 -3 -8 1 -14 11 -14 18 0 268
-245 259 -254 -4 -3 3 -6 15 -6 11 0 24 -5 28 -12 5 -7 3 -8 -6 -3 -8 5 -11 4
-6 -3 4 -6 14 -8 23 -5 11 4 14 3 9 -5 -4 -7 -1 -12 9 -12 11 0 15 -5 12 -14
-4 -11 -1 -13 10 -9 11 4 14 2 9 -5 -4 -7 -1 -12 9 -12 11 0 15 -5 12 -14 -4
-11 -1 -13 10 -9 12 5 15 2 10 -10 -3 -9 -3 -16 1 -15 12 4 72 -45 66 -54 -3
-5 0 -7 8 -6 7 2 12 -3 10 -10 -1 -8 2 -11 8 -7 6 3 8 10 5 15 -3 5 -1 11 3
14 16 10 8 -34 -8 -45 -12 -8 -11 -9 5 -7 12 2 19 -2 17 -10 -1 -8 2 -11 8 -7
5 3 10 -3 10 -14 0 -12 4 -21 10 -21 5 0 7 7 3 16 -5 14 -3 15 15 5 26 -14 44
-45 34 -57 -4 -5 2 -1 14 9 30 25 37 21 18 -9 -14 -20 -15 -27 -4 -37 10 -9
11 -9 6 0 -4 7 -2 23 5 35 l12 22 18 -23 c10 -12 23 -20 28 -17 5 4 12 2 16
-4 8 -12 45 -13 45 -1 0 5 -10 7 -23 4 -12 -3 -20 -3 -17 0 11 12 60 16 57 4
-3 -16 -21 -36 -28 -31 -3 2 -6 -3 -6 -11 0 -8 4 -12 8 -9 4 2 12 -4 18 -13 6
-10 11 -13 11 -6 0 6 7 10 15 9 21 -3 31 -16 12 -16 -9 0 -18 -4 -21 -9 -4 -5
4 -7 16 -4 19 4 21 3 8 -7 -13 -10 -12 -11 3 -6 10 3 28 -1 40 -9 12 -8 17
-15 12 -15 -6 0 -2 -5 8 -11 10 -6 21 -8 24 -5 4 3 1 6 -5 6 -7 0 -12 5 -12
10 0 16 17 11 24 -7 4 -9 2 -21 -4 -27 -5 -5 -10 -17 -10 -26 0 -8 -9 -22 -20
-30 -11 -8 -20 -21 -20 -30 0 -9 -9 -22 -20 -30 -11 -8 -20 -21 -20 -30 0 -9
-9 -22 -20 -30 -11 -8 -20 -22 -20 -32 0 -10 -4 -18 -10 -18 -5 0 -10 -9 -10
-20 0 -11 -9 -25 -20 -32 -11 -7 -20 -21 -20 -30 0 -10 -4 -18 -10 -18 -5 0
-10 -8 -10 -18 0 -10 -9 -24 -20 -32 -11 -8 -20 -22 -20 -32 0 -10 -5 -18 -11
-18 -6 0 -9 -6 -6 -14 3 -8 -5 -22 -19 -33 -13 -10 -22 -23 -20 -30 3 -6 -6
-19 -20 -29 -13 -11 -24 -26 -24 -34 0 -9 -9 -22 -20 -30 -11 -8 -20 -22 -20
-32 0 -10 -4 -18 -10 -18 -5 0 -10 -9 -10 -20 0 -11 -9 -25 -20 -32 -11 -7
-20 -20 -20 -28 0 -9 -9 -22 -20 -30 -11 -8 -20 -22 -20 -32 0 -10 -4 -18 -10
-18 -5 0 -10 -8 -10 -18 0 -10 -9 -24 -20 -32 -11 -8 -20 -22 -20 -32 0 -10
-4 -18 -10 -18 -5 0 -10 -9 -10 -20 0 -11 -5 -20 -11 -20 -6 0 -9 -7 -5 -15 3
-8 -2 -19 -12 -24 -9 -5 -14 -13 -10 -16 4 -4 137 124 297 284 159 160 295
291 301 291 6 0 8 4 5 10 -3 5 1 10 10 10 8 0 70 54 135 120 66 67 125 118
130 115 6 -3 10 2 11 12 0 15 2 14 9 -4 6 -15 15 -21 30 -18 13 3 23 -2 27
-13 10 -27 24 -42 35 -36 6 4 6 9 -2 14 -9 5 -8 9 2 12 9 4 14 -4 15 -24 0
-17 -2 -26 -6 -21 -3 6 -14 9 -24 7 -10 -1 -14 2 -11 8 5 7 2 8 -6 3 -9 -6
-11 -4 -5 5 5 8 4 11 -3 7 -6 -5 -8 1 -4 15 4 16 2 19 -9 12 -19 -12 -40 -14
-34 -4 3 5 1 11 -4 14 -5 4 -9 -7 -9 -24 1 -19 4 -26 9 -19 11 18 39 20 32 3
-3 -8 0 -14 7 -14 6 0 8 -5 4 -12 -4 -6 -3 -8 4 -4 6 3 13 2 17 -4 4 -6 11 -8
16 -4 13 8 40 -16 32 -29 -4 -6 -1 -7 7 -2 9 6 12 4 8 -7 -4 -8 -1 -15 7 -15
7 0 11 6 8 14 -4 9 0 11 11 7 9 -3 13 -11 9 -18 -4 -6 5 -3 21 7 27 18 27 18
17 -2 -16 -29 -13 -33 7 -13 11 9 17 22 14 27 -3 6 5 1 17 -10 13 -11 26 -19
30 -18 3 1 5 -4 3 -12 -1 -7 5 -15 13 -19 9 -3 13 -2 10 4 -6 9 8 14 27 11 5
0 8 3 8 9 0 5 5 10 11 10 5 0 8 -4 5 -9 -3 -4 1 -17 9 -27 14 -18 15 -17 10
11 -5 26 -4 27 4 8 6 -13 15 -23 21 -23 6 0 8 5 5 10 -3 5 -1 10 5 10 6 0 8
-12 6 -27 l-5 -28 19 25 19 25 -4 -30 -4 -30 14 30 c8 17 14 23 15 14 0 -21
30 -48 30 -29 0 9 5 8 18 -3 10 -10 26 -17 36 -17 9 0 14 -5 11 -10 -4 -6 -12
-7 -18 -4 -7 4 -8 3 -4 -2 4 -4 23 -7 42 -6 18 2 36 -1 40 -7 3 -6 15 -11 26
-11 10 0 19 -4 19 -10 0 -5 -8 -7 -18 -4 -12 4 -14 3 -4 -4 7 -5 23 -7 36 -5
12 3 39 -5 60 -16 20 -12 46 -21 58 -21 15 0 18 -3 10 -13 -8 -9 -3 -12 24
-11 24 1 34 -2 31 -10 -3 -8 6 -10 31 -8 24 3 33 1 28 -7 -6 -10 28 -17 57
-12 5 1 6 -3 2 -9 -6 -10 6 -14 37 -11 9 1 19 -3 23 -9 3 -5 15 -10 26 -10 10
0 19 -4 19 -10 0 -5 15 -10 34 -10 18 0 39 -7 46 -15 7 -9 23 -13 36 -11 14 3
22 1 19 -5 -4 -5 5 -10 19 -10 14 -1 29 -2 34 -4 18 -5 48 -17 66 -26 14 -8
16 -7 11 3 -6 10 -5 11 6 1 7 -7 28 -13 47 -13 19 0 31 -4 27 -10 -4 -6 8 -10
29 -10 19 0 38 -4 41 -10 3 -5 21 -10 38 -10 18 0 64 -9 102 -20 39 -11 83
-20 98 -20 16 0 26 -4 22 -10 -4 -6 8 -10 29 -10 20 0 36 -4 36 -9 0 -5 26
-11 58 -15 31 -3 82 -10 112 -15 306 -52 553 -77 963 -97 114 -6 140 -5 148 7
8 12 10 12 18 0 7 -12 39 -13 178 -7 194 8 267 13 377 26 44 6 112 10 153 10
42 0 73 4 73 10 0 6 26 10 59 10 33 0 63 5 66 10 3 6 31 10 61 10 30 0 54 5
54 10 0 6 23 10 50 10 28 0 50 5 50 10 0 6 23 10 50 10 28 0 50 5 50 10 0 6
18 10 40 10 22 0 40 4 40 9 0 9 16 12 128 27 28 3 52 10 52 15 0 5 18 9 40 9
22 0 40 5 40 10 0 6 11 10 24 10 14 0 28 5 31 10 3 6 19 10 34 10 15 0 42 7
60 16 18 9 50 18 72 21 21 3 39 10 39 14 0 5 18 9 41 9 24 0 38 4 34 10 -4 6
8 10 29 10 20 0 36 5 36 10 0 6 14 10 30 10 17 0 30 5 30 10 0 6 14 10 31 10
17 0 28 4 24 10 -3 6 5 10 18 10 14 0 27 6 30 14 4 9 14 12 25 9 11 -2 23 0
26 6 4 6 20 11 37 11 16 0 29 5 29 10 0 6 9 10 20 10 11 0 20 5 20 10 0 6 9
10 20 10 11 0 29 5 40 10 11 6 29 15 40 20 11 6 29 10 40 10 11 0 20 5 20 10
0 6 9 10 20 10 11 0 20 5 20 10 0 6 14 10 30 10 17 0 30 5 30 10 0 6 9 10 20
10 11 0 20 5 20 10 0 6 9 10 19 10 11 0 21 3 23 8 4 10 87 52 104 52 8 0 14 3
14 8 0 8 49 32 67 32 7 0 13 5 13 10 0 6 9 10 20 10 11 0 20 5 20 11 0 6 7 8
15 5 9 -3 18 1 21 9 4 8 15 15 25 15 10 0 19 5 19 10 0 6 9 10 20 10 11 0 20
5 20 11 0 6 7 8 15 5 9 -3 18 1 21 9 4 8 10 12 15 9 5 -3 9 2 9 10 0 10 9 16
26 16 17 0 23 4 18 12 -5 8 -2 9 10 5 10 -4 19 -1 22 8 4 8 14 15 23 15 9 0
23 9 30 19 8 11 20 17 27 14 8 -3 16 2 20 10 3 9 14 14 25 12 11 -2 18 -1 16
3 -7 13 28 37 50 36 12 -1 20 3 17 7 -3 5 2 16 10 25 10 9 16 11 16 4 0 -6 19
7 42 29 22 23 46 41 52 41 7 0 18 9 26 20 8 11 21 20 29 20 7 0 27 14 43 30
15 17 34 30 41 30 7 0 19 9 27 20 8 11 20 20 26 20 7 0 30 18 52 40 21 22 44
40 51 40 7 0 9 5 6 10 -3 6 2 10 12 10 10 0 33 18 52 40 19 22 41 40 49 40 8
0 35 23 60 50 25 28 51 50 59 50 7 0 58 45 112 100 54 55 104 100 110 100 14
0 261 246 261 260 0 6 5 8 10 5 6 -3 10 1 10 11 0 9 27 43 60 75 33 32 60 63
60 70 0 7 23 34 50 60 28 26 50 52 50 57 0 5 18 28 40 51 22 22 40 46 40 52 0
6 14 24 30 39 17 15 30 35 30 43 0 8 13 25 30 38 16 13 30 30 30 37 0 8 14 27
30 42 17 15 30 34 30 42 0 7 9 20 20 28 11 8 20 22 20 32 0 10 9 23 20 30 11
7 20 21 20 30 0 10 9 23 20 30 11 7 20 20 20 28 0 9 9 22 20 30 11 8 20 22 20
32 0 10 9 23 20 30 11 7 20 21 20 30 0 10 5 18 10 18 6 0 10 7 10 15 0 19 20
55 43 76 9 9 17 24 17 33 0 9 5 16 10 16 6 0 10 7 10 16 0 23 42 94 52 88 4
-3 8 4 8 15 0 12 5 21 10 21 6 0 10 9 10 20 0 11 5 20 10 20 6 0 10 9 10 20 0
11 5 20 10 20 6 0 10 6 10 13 0 18 24 67 33 67 4 0 7 9 7 21 0 11 5 17 10 14
6 -3 10 4 10 17 0 13 9 30 20 38 11 8 20 22 20 32 0 10 5 18 10 18 6 0 10 14
10 30 0 17 5 30 10 30 6 0 10 7 10 16 0 18 41 97 53 102 4 2 7 17 7 33 0 16 5
29 10 29 6 0 10 9 10 20 0 11 5 20 10 20 6 0 10 14 10 31 0 17 4 28 10 24 6
-4 10 5 10 19 0 14 5 26 10 26 6 0 10 9 10 20 0 28 23 100 32 100 5 0 8 9 8
21 0 28 61 213 71 217 5 2 9 21 9 43 0 21 5 39 10 39 6 0 10 14 10 30 0 17 5
30 10 30 6 0 10 18 10 40 0 22 4 40 9 40 5 0 12 24 15 53 15 111 18 127 27
127 5 0 9 23 9 50 0 28 5 50 10 50 6 0 10 12 10 28 0 15 7 60 15 101 9 41 20
104 25 140 5 36 16 111 24 166 8 55 19 143 25 195 6 52 16 133 21 179 6 46 10
115 10 153 0 47 3 67 11 62 8 -4 9 92 5 337 -6 391 -17 538 -56 819 -6 41 -14
108 -17 148 -3 39 -9 72 -13 72 -8 0 -13 29 -26 138 -4 29 -10 55 -15 58 -5 3
-9 20 -9 39 0 19 -4 37 -10 40 -5 3 -10 28 -10 56 0 27 -4 49 -10 49 -5 0 -10
15 -10 33 0 19 -3 37 -7 41 -10 9 -32 95 -33 124 0 12 -4 30 -9 40 -16 32 -71
218 -71 240 0 12 -4 22 -10 22 -5 0 -10 14 -10 30 0 17 -3 30 -7 30 -5 0 -24
48 -43 108 -19 59 -39 110 -45 114 -5 4 -10 13 -10 20 -2 26 -18 73 -29 80 -6
4 -11 13 -12 20 -2 35 -18 77 -29 82 -8 3 -11 13 -8 26 3 12 1 25 -4 29 -14 8
-53 87 -53 106 0 8 -4 15 -10 15 -5 0 -10 9 -10 20 0 11 -4 20 -10 20 -5 0
-10 9 -10 20 0 11 -4 20 -10 20 -5 0 -10 9 -10 20 0 11 -4 20 -10 20 -5 0 -10
9 -10 19 0 11 -3 21 -7 23 -12 5 -53 84 -53 102 0 9 -4 16 -10 16 -5 0 -10 8
-10 18 0 10 -9 24 -20 32 -11 8 -20 22 -20 32 0 10 -3 18 -7 18 -9 0 -33 49
-33 67 0 7 -4 13 -10 13 -5 0 -10 8 -10 17 0 9 -3 13 -7 10 -7 -7 -33 38 -33
57 0 6 -9 18 -20 26 -11 8 -20 22 -20 32 0 10 -4 18 -10 18 -5 0 -10 8 -10 18
0 10 -9 24 -20 32 -11 8 -20 21 -20 30 0 9 -9 22 -20 30 -11 8 -20 21 -20 30
0 8 -9 21 -20 28 -11 7 -20 20 -20 30 0 9 -14 28 -30 41 -17 13 -30 29 -30 37
0 8 -12 26 -27 41 -16 16 -29 35 -31 43 -2 8 -8 18 -14 21 -6 4 -7 12 -3 19 5
9 4 11 -4 6 -15 -10 -41 11 -41 33 0 9 -14 27 -30 40 -17 13 -29 29 -28 36 2
6 -16 30 -39 53 -24 22 -43 46 -43 53 0 6 -9 20 -21 30 -12 10 -18 23 -13 30
4 7 3 9 -4 5 -12 -7 -102 74 -102 93 0 7 -4 9 -10 6 -5 -3 -10 1 -10 10 0 8
-104 119 -230 246 -137 136 -228 234 -224 241 4 7 3 8 -4 4 -20 -12 -102 49
-102 75 0 7 -3 10 -6 6 -5 -5 -14 1 -73 50 -22 19 -23 21 -6 19 11 -2 19 -8
18 -13 -1 -5 4 -10 10 -10 7 0 13 8 13 17 0 12 -9 16 -37 15 -21 -1 -37 4 -36
9 1 6 -4 10 -11 8 -8 -1 -11 2 -8 7 5 8 -17 23 -37 25 -5 1 -14 9 -21 18 -7
10 -17 14 -21 10 -5 -4 -5 -2 -2 4 4 7 0 15 -9 18 -17 6 -10 26 9 26 7 0 6 -4
-3 -11 -12 -8 -10 -9 9 -4 16 5 21 4 17 -4 -4 -6 -2 -19 4 -28 9 -16 10 -15 5
4 -5 19 -3 22 12 17 10 -3 4 4 -14 16 -26 17 -36 19 -53 10 -25 -13 -46 -4
-30 14 7 10 5 20 -10 38 -10 14 -16 28 -13 32 3 3 1 6 -5 6 -15 0 -16 -17 -1
-25 6 -4 8 -14 5 -22 -3 -8 -2 -11 3 -8 5 3 12 1 16 -5 3 -5 -1 -10 -9 -10 -8
0 -18 5 -21 10 -4 6 -11 8 -16 5 -5 -4 -9 -3 -9 2 0 4 -12 16 -26 26 -21 16
-27 17 -41 5 -10 -8 -14 -8 -10 -1 4 6 3 14 -3 18 -6 4 -7 11 -4 17 5 7 2 8
-5 4 -7 -5 -10 -14 -8 -20 3 -7 1 -19 -4 -27 -8 -12 -9 -12 -7 1 3 22 -12 61
-22 55 -4 -3 -11 2 -14 10 -5 13 -10 14 -27 5 -11 -7 -24 -9 -27 -5 -3 3 4 8
17 12 16 4 19 8 10 14 -7 4 -19 3 -25 -2 -8 -7 -14 -6 -19 1 -4 6 -3 10 2 9 4
-1 10 0 13 1 18 7 48 5 43 -3 -3 -6 -2 -7 3 -4 6 3 16 2 24 -4 10 -6 11 -9 3
-9 -9 0 -7 -6 5 -18 16 -17 18 -17 35 1 9 11 17 27 16 36 0 14 -1 14 -6 1 -9
-25 -25 -40 -35 -34 -5 3 -1 12 9 20 17 13 17 14 -2 8 -16 -6 -18 -5 -7 7 14
16 16 39 2 39 -5 0 -6 -7 -3 -17 5 -12 3 -14 -7 -8 -9 5 -11 4 -6 -3 4 -7 2
-12 -3 -12 -6 0 -11 5 -11 11 0 6 -9 8 -22 3 -19 -6 -21 -4 -11 7 9 11 8 19
-3 33 -8 11 -14 15 -14 10 0 -6 5 -15 11 -21 8 -8 5 -14 -11 -23 -26 -14 -40
-5 -20 13 10 10 11 9 5 -2 -5 -9 -4 -12 3 -7 8 5 9 13 2 25 -5 10 -6 21 -3 25
3 3 1 6 -5 6 -7 0 -12 -4 -12 -10 0 -5 -5 -10 -11 -10 -5 0 -7 5 -4 10 6 10
-10 15 -30 10 -5 -2 -18 -2 -28 -2 -9 0 -15 -3 -12 -9 4 -5 1 -9 -5 -9 -7 0
-9 8 -5 21 5 14 3 19 -4 15 -5 -4 -23 6 -38 23 -15 16 -32 30 -38 32 -5 2 -9
8 -7 13 2 5 -4 6 -13 2 -9 -3 -19 -6 -21 -6 -3 0 -2 -5 2 -12 5 -7 3 -8 -6 -3
-10 6 -10 11 3 20 20 14 12 26 -11 18 -13 -4 -14 -3 -4 5 11 7 10 11 -5 17
-10 5 -22 7 -26 6 -5 -1 -6 3 -2 9 3 6 11 8 16 4 6 -3 8 5 5 20 -4 23 -3 24
19 14 14 -6 22 -15 19 -20 -3 -5 -13 -3 -22 4 -15 11 -15 11 -4 -4 7 -9 9 -18
5 -20 -4 -3 -2 -3 5 -1 8 1 10 -2 6 -9 -5 -7 -3 -8 6 -3 9 6 11 4 5 -4 -6 -10
-2 -11 16 -1 23 11 24 11 4 -6 -17 -14 -18 -16 -2 -10 12 4 16 2 11 -6 -5 -7
-3 -8 6 -3 9 6 11 4 5 -5 -6 -9 -4 -11 5 -5 9 6 11 4 5 -5 -6 -9 -4 -11 5 -5
9 6 11 4 5 -5 -6 -9 -4 -11 5 -5 8 5 11 4 6 -3 -3 -6 -2 -13 4 -17 5 -3 10 -1
10 5 0 7 9 23 20 37 11 14 17 30 13 36 -4 6 0 8 11 4 10 -4 15 -3 11 3 -10 15
-50 5 -51 -14 -2 -13 -1 -13 3 -1 2 8 9 13 14 10 14 -9 -8 -44 -26 -41 -18 3
-32 16 -17 16 7 0 12 5 12 11 0 8 -4 8 -14 0 -8 -7 -17 -8 -20 -3 -3 5 6 15
19 22 26 14 34 32 13 27 -7 -1 -12 5 -10 13 3 12 1 13 -10 2 -11 -11 -10 -14
2 -22 8 -5 13 -10 10 -11 -48 -8 -58 -6 -56 8 2 9 10 21 20 28 14 11 14 13 2
18 -9 4 -18 2 -21 -3 -9 -15 -22 -12 -29 6 -4 11 -2 15 7 11 10 -4 13 2 9 19
-3 18 0 24 9 22 9 -2 13 5 11 20 -2 14 2 22 12 22 9 0 13 7 11 18 -2 11 5 25
16 33 10 7 19 21 19 31 0 10 6 18 14 18 9 0 13 7 11 18 -2 11 5 25 16 33 10 7
19 22 19 32 0 10 5 15 10 12 6 -3 10 1 10 9 0 9 6 16 14 16 9 0 12 7 9 20 -3
11 0 20 6 20 6 0 11 6 11 13 0 7 9 23 20 35 11 12 20 28 20 37 0 9 5 13 10 10
6 -3 10 1 10 9 0 9 5 16 10 16 6 0 10 9 10 20 0 11 5 20 11 20 6 0 9 6 6 14
-3 8 5 22 19 32 13 11 24 26 24 34 0 9 9 22 20 30 11 8 20 22 20 32 0 10 5 18
10 18 6 0 10 9 10 20 0 11 9 25 20 32 11 7 20 21 20 30 0 10 5 18 11 18 6 0 9
6 6 14 -3 8 5 22 19 32 13 11 24 27 24 36 0 10 5 18 10 18 6 0 10 9 10 20 0
11 9 25 20 32 11 7 20 20 20 28 0 9 9 22 20 30 11 8 20 21 20 30 0 9 9 22 20
30 11 8 20 21 20 30 0 9 9 22 20 30 19 14 28 51 13 49 -5 0 -190 -184 -413
-408z m-955 -453 c4 4 6 1 3 -7 -2 -8 -10 -17 -18 -19 -8 -3 -10 0 -5 8 6 9 4
12 -7 8 -8 -4 -15 0 -15 7 0 10 5 11 17 5 10 -5 21 -6 25 -2z m-122 -13 c-3
-9 -8 -14 -10 -11 -3 3 -2 9 2 15 9 16 15 13 8 -4z m152 -15 c-3 -5 -12 -10
-18 -10 -7 0 -6 4 3 10 19 12 23 12 15 0z m120 -20 c0 -1 10 -3 23 -6 37 -7
63 -24 56 -36 -5 -7 -2 -9 8 -6 8 4 15 0 15 -7 0 -10 -5 -11 -17 -5 -10 5 -21
6 -25 2 -5 -4 -6 -2 -3 3 3 6 -5 18 -18 28 -13 10 -24 14 -24 9 0 -6 -7 -12
-15 -16 -8 -3 -14 -2 -14 2 3 21 -3 24 -17 6 -14 -18 -15 -18 -4 4 7 15 7 22
0 22 -5 0 -10 -5 -10 -12 0 -6 -3 -9 -6 -5 -12 11 7 27 29 23 12 -3 22 -5 22
-6z m135 -79 c0 -14 -29 -21 -36 -9 -4 7 -3 8 4 4 7 -4 12 -2 12 3 0 6 5 11
10 11 6 0 10 -4 10 -9z m370 -246 c0 -11 -29 -11 -33 -1 -4 10 1 12 14 9 10
-3 19 -7 19 -8z m5 -24 c3 -5 2 -12 -3 -15 -5 -3 -9 1 -9 9 0 17 3 19 12 6z
m75 -46 c0 -1 -12 -2 -26 -2 -17 0 -22 2 -13 7 10 7 39 3 39 -5z m29 -23 c7
-14 6 -19 -4 -19 -7 0 -11 7 -7 15 4 11 1 13 -8 7 -9 -5 -11 -4 -6 3 10 16 14
15 25 -6z m107 -31 c-7 -11 22 -23 35 -15 5 3 9 0 9 -5 0 -6 -7 -11 -16 -11
-9 0 -12 -5 -8 -12 4 -7 3 -8 -5 -4 -6 4 -9 12 -6 17 4 5 1 9 -4 9 -6 0 -11
-7 -11 -15 0 -8 -4 -15 -10 -15 -5 0 -6 8 -3 18 6 15 5 15 -10 3 -9 -7 -17
-10 -17 -6 0 4 10 15 23 26 25 21 31 23 23 10z m-82 -19 c3 -5 -1 -9 -9 -9 -8
0 -12 4 -9 9 3 4 7 8 9 8 2 0 6 -4 9 -8z m103 -48 c-3 -3 -12 -4 -19 -1 -8 3
-5 6 6 6 11 1 17 -2 13 -5z m80 -66 c-3 -8 -6 -5 -6 6 -1 11 2 17 5 13 3 -3 4
-12 1 -19z m30 -21 c-1 -5 -11 -11 -20 -13 -9 -1 -15 2 -11 7 3 5 10 6 16 3 8
-5 9 -1 5 10 -4 11 -3 15 4 11 5 -4 8 -12 6 -18z m-6957 -803 c0 -8 -19 -13
-24 -6 -3 5 1 9 9 9 8 0 15 -2 15 -3z m8810 -3260 c0 -8 -19 -13 -24 -6 -3 5
1 9 9 9 8 0 15 -2 15 -3z m4 -110 c3 -8 2 -12 -4 -9 -6 3 -10 10 -10 16 0 14
7 11 14 -7z m42 -216 c4 -7 3 -8 -4 -4 -7 4 -12 0 -12 -10 0 -10 -3 -15 -6
-11 -7 6 2 37 10 37 3 0 8 -5 12 -12z m1 -35 c-4 -3 -2 -12 4 -19 7 -9 6 -15
-3 -20 -22 -14 -37 -13 -31 3 4 11 8 11 13 3 5 -8 10 -9 14 -2 3 6 2 13 -4 17
-10 6 -5 25 7 25 4 0 3 -3 0 -7z m-20 -118 c0 -8 -4 -12 -9 -9 -5 3 -6 10 -3
15 9 13 12 11 12 -6z m38 -44 c3 -5 2 -12 -3 -15 -5 -3 -9 1 -9 9 0 17 3 19
12 6z m-25 -37 c0 -8 -19 -13 -24 -6 -3 5 1 9 9 9 8 0 15 -2 15 -3z m-16 -150
c3 -8 2 -12 -4 -9 -6 3 -10 10 -10 16 0 14 7 11 14 -7z m-10880 -372 c3 -5 -1
-9 -9 -9 -8 0 -12 4 -9 9 3 4 7 8 9 8 2 0 6 -4 9 -8z m26 -76 c0 -3 -4 -8 -10
-11 -5 -3 -10 -1 -10 4 0 6 5 11 10 11 6 0 10 -2 10 -4z m-9 -199 c-10 -9 -11
-8 -5 6 3 10 9 15 12 12 3 -3 0 -11 -7 -18z m29 -51 c0 -2 -6 -9 -14 -15 -11
-9 -16 -9 -22 0 -4 7 -3 9 4 5 6 -3 13 -2 17 4 6 10 15 14 15 6z m20 -32 c0
-8 -19 -13 -24 -6 -3 5 1 9 9 9 8 0 15 -2 15 -3z m-25 -103 c3 -5 2 -12 -3
-15 -5 -3 -9 1 -9 9 0 17 3 19 12 6z m46 -38 c13 -16 12 -17 -3 -4 -10 7 -18
15 -18 17 0 8 8 3 21 -13z m-1 -59 c0 -8 -19 -13 -24 -6 -3 5 1 9 9 9 8 0 15
-2 15 -3z m0 -98 c0 -2 -7 -7 -16 -10 -8 -3 -12 -2 -9 4 6 10 25 14 25 6z m16
-28 c4 -7 4 -10 -1 -6 -4 4 -15 2 -24 -5 -14 -11 -14 -10 -2 6 16 20 18 21 27
5z m64 -83 c0 -5 -5 -3 -10 5 -5 8 -10 20 -10 25 0 6 5 3 10 -5 5 -8 10 -19
10 -25z m-45 -14 c3 -5 2 -12 -3 -15 -5 -3 -9 1 -9 9 0 17 3 19 12 6z m61
-266 c-1 -8 -5 -17 -8 -21 -5 -4 -4 16 1 34 3 9 9 -1 7 -13z m64 -190 c0 -7
-30 -13 -34 -7 -3 4 4 9 15 9 10 1 19 0 19 -2z m1505 -3225 c-3 -5 -12 -10
-18 -10 -7 0 -6 4 3 10 19 12 23 12 15 0z m26 -47 c13 -16 12 -17 -3 -4 -17
13 -22 21 -14 21 2 0 10 -8 17 -17z m-16 -13 c4 -6 -1 -7 -12 -3 -15 6 -16 4
-6 -9 7 -8 9 -19 5 -23 -4 -5 2 -5 12 -1 11 4 22 2 27 -5 11 -18 31 1 25 24
-4 15 -2 17 7 8 9 -9 9 -16 -1 -31 -6 -10 -8 -22 -3 -25 5 -3 11 1 14 7 2 7 7
10 11 7 3 -3 -6 -16 -21 -30 -14 -13 -23 -19 -20 -13 3 6 -14 23 -38 39 -48
30 -51 35 -33 53 15 15 25 15 33 2z m110 -40 c3 -6 -1 -7 -9 -4 -18 7 -21 14
-7 14 6 0 13 -4 16 -10z m-11 -31 c-4 -8 1 -9 17 -5 l24 7 -23 -14 c-12 -7
-20 -16 -16 -20 4 -4 13 -2 21 4 7 6 13 8 13 3 0 -5 5 -2 11 6 9 13 10 12 5
-2 -3 -10 0 -18 6 -18 6 0 9 -3 6 -6 -26 -25 -99 16 -77 43 14 16 23 17 13 2z
m106 -30 c0 -5 -4 -9 -8 -9 -5 0 -9 7 -9 15 0 8 4 12 9 9 4 -3 8 -9 8 -15z
m37 -33 c0 -8 -6 -12 -15 -9 -11 5 -11 7 0 14 7 5 13 9 14 9 0 0 1 -6 1 -14z
m3 -42 c0 -8 3 -13 8 -12 16 4 52 -14 52 -28 0 -8 5 -14 11 -14 5 0 7 6 4 13
-4 6 3 1 14 -12 12 -13 21 -28 21 -35 -1 -6 -6 -1 -13 11 -10 18 -16 20 -31
11 -15 -8 -17 -8 -11 2 6 10 4 12 -9 7 -10 -4 -19 -1 -22 8 -4 8 -11 12 -17 8
-5 -3 -8 -2 -4 3 3 5 -1 18 -9 29 -10 13 -14 15 -14 4 0 -12 -2 -12 -10 1 -7
11 -10 11 -10 2 0 -7 -5 -10 -11 -7 -14 9 21 34 38 28 7 -3 13 -11 13 -19z
m77 -11 c0 -9 -4 -10 -14 -2 -7 6 -13 12 -13 14 0 1 6 2 13 2 8 0 14 -6 14
-14z m43 -7 c0 -3 -4 -8 -10 -11 -5 -3 -10 -1 -10 4 0 6 5 11 10 11 6 0 10 -2
10 -4z m410 -340 c-4 -4 -16 -4 -26 2 -16 9 -14 10 8 9 15 -1 23 -6 18 -11z
m48 -11 c-3 -3 -9 2 -12 12 -6 14 -5 15 5 6 7 -7 10 -15 7 -18z m-50 -8 c10 4
13 1 10 -8 -3 -8 -11 -14 -19 -15 -20 0 -40 16 -33 28 4 6 10 6 16 0 6 -6 17
-8 26 -5z m75 -14 c-7 -2 -19 -2 -25 0 -7 3 -2 5 12 5 14 0 19 -2 13 -5z m37
-14 c0 -5 -4 -9 -8 -9 -5 0 -9 7 -9 15 0 8 4 12 9 9 4 -3 8 -9 8 -15z m-80 1
c0 -5 -4 -10 -10 -10 -5 0 -10 5 -10 10 0 6 5 10 10 10 6 0 10 -4 10 -10z
m128 -24 c-2 -1 -10 -7 -18 -13 -13 -10 -16 -8 -16 6 0 13 6 17 19 13 10 -2
16 -5 15 -6z m2795 -351 c-7 -21 -12 -19 -10 4 0 11 5 18 9 15 4 -3 5 -11 1
-19z m3 -65 c-1 -21 -4 -42 -7 -44 -4 -5 -5 38 -1 72 4 29 9 9 8 -28z"/>
<path d="M3290 2160 c0 -5 5 -10 11 -10 5 0 7 5 4 10 -3 6 -8 10 -11 10 -2 0
-4 -4 -4 -10z"/>
<path d="M3334 2131 c7 -11 46 -35 46 -28 0 3 -12 12 -26 22 -15 9 -23 12 -20
6z"/>
<path d="M3446 2072 c-3 -5 1 -9 9 -9 8 0 12 4 9 9 -3 4 -7 8 -9 8 -2 0 -6 -4
-9 -8z"/>
<path d="M3592 1977 c10 -8 14 -18 10 -22 -4 -5 -1 -5 6 -1 17 10 15 14 -10
26 -21 10 -21 10 -6 -3z"/>
<path d="M6396 13193 c-6 -14 -5 -15 5 -6 7 7 10 15 7 18 -3 3 -9 -2 -12 -12z"/>
<path d="M9455 12540 c-2 -3 0 -12 6 -20 7 -13 9 -13 9 0 0 12 2 12 9 2 6 -11
9 -9 13 5 4 13 0 19 -14 19 -11 0 -21 -3 -23 -6z"/>
<path d="M9555 12530 c3 -5 8 -10 11 -10 2 0 4 5 4 10 0 6 -5 10 -11 10 -5 0
-7 -4 -4 -10z"/>
<path d="M9835 12489 c-4 -6 -5 -12 -2 -15 2 -3 7 2 10 11 7 17 1 20 -8 4z"/>
<path d="M9793 12470 c-1 -11 2 -20 7 -20 4 0 7 7 6 15 -3 23 -12 26 -13 5z"/>
<path d="M9886 12478 c3 -5 10 -6 15 -3 13 9 11 12 -6 12 -8 0 -12 -4 -9 -9z"/>
<path d="M9815 12439 c-5 -7 -4 -10 3 -5 5 3 12 1 14 -6 3 -8 9 -8 24 1 12 8
13 11 3 8 -9 -3 -21 -1 -27 5 -6 6 -12 6 -17 -3z"/>
<path d="M10746 12438 c3 -5 10 -6 15 -3 13 9 11 12 -6 12 -8 0 -12 -4 -9 -9z"/>
<path d="M9894 12432 c6 -11 -5 -16 -26 -13 -11 1 -2 -30 11 -39 11 -6 11 -9
0 -13 -8 -3 -9 -6 -4 -6 6 0 16 3 24 8 18 12 5 32 -17 25 -11 -4 -9 1 7 14 18
14 21 21 11 27 -9 5 -11 4 -6 -3z"/>
<path d="M9956 12418 c3 -5 10 -6 15 -3 13 9 11 12 -6 12 -8 0 -12 -4 -9 -9z"/>
<path d="M10395 12423 c3 -3 -3 -16 -12 -27 -14 -15 -14 -18 -2 -8 9 6 18 9
22 6 3 -3 4 1 3 10 -1 8 -5 18 -9 21 -4 3 -5 2 -2 -2z"/>
<path d="M10370 12361 c0 -6 4 -13 10 -16 6 -3 7 1 4 9 -7 18 -14 21 -14 7z"/>
<path d="M10433 12334 c16 -20 52 -30 41 -12 -4 5 -9 7 -12 4 -3 -3 -15 2 -26
11 -21 18 -21 18 -3 -3z"/>
<path d="M10353 12324 c8 -9 47 -13 51 -6 2 4 -9 8 -25 8 -17 1 -28 0 -26 -2z"/>
<path d="M10536 12318 c3 -4 11 -5 19 -1 21 7 19 12 -4 10 -11 0 -18 -5 -15
-9z"/>
<path d="M10405 12300 c-3 -6 1 -7 9 -4 18 7 21 14 7 14 -6 0 -13 -4 -16 -10z"/>
<path d="M10730 12299 c0 -5 5 -7 10 -4 6 3 10 8 10 11 0 2 -4 4 -10 4 -5 0
-10 -5 -10 -11z"/>
<path d="M10815 12299 c-3 -4 2 -6 10 -5 21 3 28 13 10 13 -9 0 -18 -4 -20 -8z"/>
<path d="M10424 12278 l-19 -23 23 19 c12 11 22 21 22 23 0 8 -8 2 -26 -19z"/>
<path d="M10533 12285 c0 -8 4 -15 9 -15 4 0 8 4 8 9 0 6 -4 12 -8 15 -5 3 -9
-1 -9 -9z"/>
<path d="M10354 12259 c-2 -33 4 -33 11 -1 2 12 1 24 -3 26 -4 2 -8 -9 -8 -25z"/>
<path d="M11147 12279 c7 -7 15 -10 18 -7 3 3 -2 9 -12 12 -14 6 -15 5 -6 -5z"/>
<path d="M10635 12249 c-4 -6 -5 -12 -2 -15 2 -3 7 2 10 11 7 17 1 20 -8 4z"/>
<path d="M10290 12246 c0 -2 7 -7 16 -10 8 -3 12 -2 9 4 -6 10 -25 14 -25 6z"/>
<path d="M10596 12233 c-6 -14 -5 -15 5 -6 7 7 10 15 7 18 -3 3 -9 -2 -12 -12z"/>
<path d="M10845 12240 c-3 -6 1 -7 9 -4 18 7 21 14 7 14 -6 0 -13 -4 -16 -10z"/>
<path d="M10304 12216 c11 -9 24 -16 30 -16 12 0 7 5 -24 19 -24 11 -24 11 -6
-3z"/>
<path d="M10427 12213 c3 -7 6 -13 8 -13 1 0 7 6 13 13 8 10 6 13 -7 13 -11 0
-17 -6 -14 -13z"/>
<path d="M10500 12226 c0 -2 8 -10 18 -17 15 -13 16 -12 3 4 -13 16 -21 21
-21 13z"/>
<path d="M10794 12222 c4 -3 14 -7 22 -8 9 -1 13 0 10 4 -4 3 -14 7 -22 8 -9
1 -13 0 -10 -4z"/>
<path d="M10716 12207 c3 -10 9 -15 12 -12 3 3 0 11 -7 18 -10 9 -11 8 -5 -6z"/>
<path d="M10850 12200 c0 -5 5 -10 11 -10 5 0 7 5 4 10 -3 6 -8 10 -11 10 -2
0 -4 -4 -4 -10z"/>
<path d="M10495 12169 c-4 -6 -5 -12 -2 -15 2 -3 7 2 10 11 7 17 1 20 -8 4z"/>
<path d="M10559 12178 c-5 -18 -6 -38 -1 -34 7 8 12 36 6 36 -2 0 -4 -1 -5 -2z"/>
<path d="M10769 12157 c6 -8 7 -18 3 -22 -4 -5 -1 -5 6 -1 10 6 10 11 1 22 -6
8 -14 14 -16 14 -3 0 0 -6 6 -13z"/>
<path d="M10510 12156 c0 -2 8 -10 18 -17 15 -13 16 -12 3 4 -13 16 -21 21
-21 13z"/>
<path d="M10435 12140 c-16 -7 -17 -9 -3 -9 9 -1 20 4 23 9 7 11 7 11 -20 0z"/>
<path d="M10819 12148 c-5 -18 -6 -38 -1 -34 7 8 12 36 6 36 -2 0 -4 -1 -5 -2z"/>
<path d="M10493 12127 c0 -8 6 -14 14 -14 9 0 10 4 2 14 -6 7 -12 13 -14 13
-1 0 -2 -6 -2 -13z"/>
<path d="M10381 12088 c-8 -13 -13 -25 -12 -27 2 -2 -3 -7 -9 -11 -9 -5 -9 -9
-1 -14 6 -4 11 -1 11 6 0 7 7 2 16 -10 8 -12 19 -20 24 -17 15 9 0 33 -23 39
-20 5 -20 6 -2 26 10 11 23 20 28 20 6 0 2 -9 -8 -20 -10 -11 -14 -20 -9 -20
12 0 34 36 27 44 -12 12 -28 6 -42 -16z"/>
<path d="M10520 12095 c-11 -13 -15 -13 -22 -3 -5 9 -7 6 -5 -9 2 -12 7 -26
12 -30 4 -5 5 -2 1 5 -4 6 -3 12 1 12 5 0 15 -6 23 -12 12 -11 12 -10 1 5 -11
14 -11 20 -1 32 7 8 10 15 7 15 -2 0 -10 -7 -17 -15z"/>
<path d="M10460 12089 c0 -5 -4 -7 -10 -4 -5 3 -10 1 -10 -4 0 -6 5 -11 11
-11 5 0 7 -5 4 -10 -5 -8 -11 -7 -21 1 -10 8 -14 8 -14 0 0 -6 5 -11 11 -11 5
0 7 -6 3 -12 -4 -7 1 -5 12 4 17 15 31 58 18 58 -2 0 -4 -5 -4 -11z"/>
<path d="M10553 12076 c-3 -6 -3 -8 2 -4 4 4 13 3 20 -2 8 -7 12 -5 12 3 0 16
-25 18 -34 3z"/>
<path d="M10950 12080 c0 -5 5 -10 10 -10 6 0 10 5 10 10 0 6 -4 10 -10 10 -5
0 -10 -4 -10 -10z"/>
<path d="M10735 12060 c3 -5 8 -10 11 -10 2 0 4 5 4 10 0 6 -5 10 -11 10 -5 0
-7 -4 -4 -10z"/>
<path d="M10462 12035 c-7 -8 -8 -15 -3 -15 5 0 13 5 17 11 5 8 10 6 16 -5 5
-9 13 -14 18 -11 5 3 12 -4 15 -16 4 -11 9 -18 12 -16 8 8 -17 48 -26 42 -5
-3 -11 2 -15 10 -7 19 -17 19 -34 0z"/>
<path d="M10550 12041 c0 -5 8 -15 18 -22 15 -12 16 -12 5 2 -7 9 -10 19 -6
22 3 4 1 7 -5 7 -7 0 -12 -4 -12 -9z"/>
<path d="M10855 12031 c-3 -5 -2 -12 3 -15 5 -3 9 1 9 9 0 17 -3 19 -12 6z"/>
<path d="M10735 12020 c-3 -5 -1 -10 4 -10 6 0 11 5 11 10 0 6 -2 10 -4 10 -3
0 -8 -4 -11 -10z"/>
<path d="M10779 12028 c-5 -18 -6 -38 -1 -34 7 8 12 36 6 36 -2 0 -4 -1 -5 -2z"/>
<path d="M10593 11995 c0 -8 4 -12 9 -9 5 3 6 10 3 15 -9 13 -12 11 -12 -6z"/>
<path d="M10558 11983 c7 -3 16 -2 19 1 4 3 -2 6 -13 5 -11 0 -14 -3 -6 -6z"/>
<path d="M10819 11988 c-5 -18 -6 -38 -1 -34 7 8 12 36 6 36 -2 0 -4 -1 -5 -2z"/>
<path d="M10636 11955 c-9 -26 -7 -32 5 -12 6 10 9 21 6 23 -2 3 -7 -2 -11
-11z"/>
<path d="M10730 11936 c0 -2 8 -10 18 -17 15 -13 16 -12 3 4 -13 16 -21 21
-21 13z"/>
<path d="M10859 11928 c-5 -18 -6 -38 -1 -34 7 8 12 36 6 36 -2 0 -4 -1 -5 -2z"/>
<path d="M10660 11916 c0 -2 7 -7 16 -10 8 -3 12 -2 9 4 -6 10 -25 14 -25 6z"/>
<path d="M10622 11885 c-11 -23 0 -46 13 -26 8 13 35 2 32 -12 -1 -7 4 -11 11
-9 6 1 12 -2 12 -7 0 -5 7 -12 15 -15 13 -5 12 -1 -2 19 -10 13 -26 27 -35 30
-16 6 -22 18 -19 38 3 17 -17 5 -27 -18z m9 -18 c-10 -9 -11 -8 -5 6 3 10 9
15 12 12 3 -3 0 -11 -7 -18z"/>
<path d="M10690 11878 c0 -4 4 -8 9 -8 6 0 12 4 15 8 3 5 -1 9 -9 9 -8 0 -15
-4 -15 -9z"/>
<path d="M10790 11818 c0 -4 4 -8 9 -8 6 0 12 4 15 8 3 5 -1 9 -9 9 -8 0 -15
-4 -15 -9z"/>
<path d="M10774 11808 c3 -10 -2 -22 -12 -27 -9 -6 -12 -11 -6 -11 20 0 34 24
22 40 -8 12 -9 12 -4 -2z"/>
<path d="M10830 11806 c0 -2 7 -7 16 -10 8 -3 12 -2 9 4 -6 10 -25 14 -25 6z"/>
<path d="M10873 11803 c4 -3 1 -13 -6 -22 -11 -14 -10 -14 5 -2 16 12 16 31 1
31 -4 0 -3 -3 0 -7z"/>
<path d="M10875 11761 c-3 -5 -2 -12 3 -15 5 -3 9 1 9 9 0 17 -3 19 -12 6z"/>
<path d="M10906 11758 c3 -5 10 -6 15 -3 13 9 11 12 -6 12 -8 0 -12 -4 -9 -9z"/>
<path d="M10861 11713 c7 -10 14 -19 14 -20 0 -1 7 8 14 20 13 20 13 21 -2 8
-11 -9 -17 -10 -17 -2 0 6 -5 11 -11 11 -8 0 -7 -6 2 -17z"/>
<path d="M10895 11700 c-3 -6 1 -7 9 -4 18 7 21 14 7 14 -6 0 -13 -4 -16 -10z"/>
<path d="M10976 11702 c-3 -5 1 -9 9 -9 8 0 12 4 9 9 -3 4 -7 8 -9 8 -2 0 -6
-4 -9 -8z"/>
<path d="M10910 11681 c0 -6 4 -13 10 -16 6 -3 7 1 4 9 -7 18 -14 21 -14 7z"/>
<path d="M10996 11607 c3 -10 9 -15 12 -12 3 3 0 11 -7 18 -10 9 -11 8 -5 -6z"/>
<path d="M11033 11605 c0 -8 4 -12 9 -9 5 3 6 10 3 15 -9 13 -12 11 -12 -6z"/>
<path d="M11054 11556 c1 -8 5 -18 8 -22 4 -3 5 1 4 10 -1 8 -5 18 -8 22 -4 3
-5 -1 -4 -10z"/>
<path d="M3317 2080 c-3 -11 -2 -22 2 -24 4 -3 8 6 9 20 2 29 -4 31 -11 4z"/>
<path d="M3400 2051 c0 -6 4 -13 10 -16 6 -3 7 1 4 9 -7 18 -14 21 -14 7z"/>
<path d="M3420 2020 c-18 -12 -2 -12 25 0 13 6 15 9 5 9 -8 0 -22 -4 -30 -9z"/>
<path d="M3472 2000 c0 -14 2 -19 5 -12 2 6 2 18 0 25 -3 6 -5 1 -5 -13z"/>
<path d="M3489 1963 c-13 -16 -12 -17 4 -4 16 13 21 21 13 21 -2 0 -10 -8 -17
-17z"/>
<path d="M3576 1915 c-9 -26 -7 -32 5 -12 6 10 9 21 6 23 -2 3 -7 -2 -11 -11z"/>
<path d="M10420 1900 c8 -5 20 -10 25 -10 6 0 3 5 -5 10 -8 5 -19 10 -25 10
-5 0 -3 -5 5 -10z"/>
<path d="M3595 1871 c-3 -5 -2 -12 3 -15 5 -3 9 1 9 9 0 17 -3 19 -12 6z"/>
<path d="M3875 1651 c-3 -5 -2 -12 3 -15 5 -3 9 1 9 9 0 17 -3 19 -12 6z"/>
<path d="M4161 1567 c-9 -11 -6 -14 14 -13 13 1 28 6 32 11 4 6 4 7 -1 3 -5
-4 -15 -3 -21 2 -9 7 -16 6 -24 -3z"/>
<path d="M4250 1543 c0 -7 28 -33 36 -33 3 0 1 6 -5 13 -6 8 -9 16 -6 19 3 2
-2 5 -10 5 -8 0 -15 -2 -15 -4z"/>
<path d="M4315 1511 c-3 -5 -2 -12 3 -15 5 -3 9 1 9 9 0 17 -3 19 -12 6z"/>
<path d="M4390 1503 c0 -6 8 -17 18 -24 16 -13 16 -13 2 6 -8 11 -16 22 -17
24 -2 2 -3 0 -3 -6z"/>
</g>
</svg>
