<?xml version="1.0" standalone="no"?>
<!DOCTYPE svg PUBLIC "-//W3C//DTD SVG 20010904//EN"
 "http://www.w3.org/TR/2001/REC-SVG-20010904/DTD/svg10.dtd">
<svg version="1.0" xmlns="http://www.w3.org/2000/svg"
 width="1245.000000pt" height="1245.000000pt" viewBox="0 0 1245.000000 1245.000000"
 preserveAspectRatio="xMidYMid meet">
<metadata>
Created by potrace 1.14, written by Peter Selinger 2001-2017
</metadata>
<g transform="translate(0.000000,1245.000000) scale(0.100000,-0.100000)"
fill="#000000" stroke="none">
<path d="M5938 12445 c-2 -1 -55 -6 -118 -9 -63 -4 -128 -9 -145 -11 -16 -2
-61 -6 -100 -10 -38 -3 -83 -8 -100 -10 -16 -2 -57 -7 -90 -10 -32 -4 -62 -8
-65 -10 -3 -1 -27 -6 -54 -9 -172 -23 -494 -93 -716 -156 -80 -22 -152 -42
-160 -44 -8 -2 -62 -21 -120 -41 -58 -20 -112 -38 -120 -40 -8 -2 -62 -21
-120 -43 -392 -149 -785 -347 -1150 -577 -107 -68 -435 -297 -450 -315 -3 -3
-47 -38 -98 -79 -293 -232 -640 -571 -876 -856 -32 -38 -66 -80 -77 -92 -63
-76 -221 -291 -311 -423 -461 -683 -777 -1432 -939 -2225 -33 -159 -34 -168
-44 -229 -3 -21 -7 -48 -10 -60 -2 -12 -7 -41 -10 -66 -3 -25 -7 -58 -10 -75
-6 -34 -12 -92 -21 -185 -3 -36 -7 -78 -9 -95 -27 -220 -27 -839 0 -1110 10
-100 16 -162 20 -185 2 -14 6 -50 10 -80 9 -76 53 -338 70 -421 8 -38 17 -82
20 -99 30 -168 196 -721 261 -867 8 -17 14 -34 14 -37 0 -4 22 -59 49 -124
226 -539 493 -998 850 -1457 47 -60 88 -112 91 -115 3 -3 29 -34 59 -70 244
-296 624 -660 953 -913 41 -31 64 -55 59 -62 -4 -5 -46 -59 -92 -120 -46 -60
-88 -115 -94 -122 -17 -21 -23 -28 -280 -363 -137 -179 -267 -348 -289 -377
-79 -100 -91 -115 -116 -148 -14 -19 -36 -49 -50 -67 l-25 -33 50 36 c28 20
129 94 226 165 97 71 375 274 618 452 l442 323 87 -54 c525 -329 1183 -605
1792 -751 126 -30 442 -93 508 -101 26 -3 58 -8 72 -10 27 -5 93 -14 151 -20
20 -2 56 -6 80 -9 51 -7 108 -12 258 -23 130 -9 701 -9 829 0 127 10 212 17
242 22 14 2 52 7 85 10 33 4 116 15 185 26 161 25 182 29 200 34 8 2 32 6 52
9 21 3 57 10 80 15 24 6 54 12 68 15 195 37 702 188 885 264 28 11 101 41 162
66 181 74 412 183 558 264 39 21 100 55 136 75 212 115 654 416 830 565 13 11
58 48 99 82 155 128 410 372 575 550 317 343 607 741 850 1170 46 81 224 425
225 435 0 3 14 34 30 70 99 216 252 642 319 890 57 212 118 496 147 685 3 25
8 52 9 60 1 8 6 44 10 80 4 36 9 72 10 81 2 9 6 52 10 95 4 43 9 87 10 96 19
99 27 744 12 953 -12 171 -25 308 -32 345 -2 10 -6 45 -10 77 -3 32 -8 65 -10
73 -2 8 -6 38 -10 65 -3 28 -15 97 -25 155 -27 140 -28 149 -34 168 -3 9 -8
33 -11 52 -24 145 -142 554 -230 795 -268 739 -689 1437 -1228 2040 -101 113
-356 366 -462 460 -49 44 -95 84 -101 90 -17 16 -106 89 -117 96 -6 4 2 29 20
60 17 30 56 104 88 164 32 61 103 193 158 295 55 102 120 223 144 270 46 86
99 186 158 295 18 33 49 92 70 130 21 39 51 93 66 122 37 66 36 71 -5 36 -18
-15 -129 -109 -247 -208 -117 -99 -302 -254 -409 -345 -108 -91 -253 -212
-321 -270 -68 -58 -132 -112 -143 -120 -10 -8 -23 -19 -30 -25 -42 -37 -43
-37 -88 -8 -24 15 -44 31 -46 36 -2 4 -7 7 -12 7 -5 0 -45 23 -90 51 -102 63
-125 76 -280 162 -197 108 -373 191 -685 322 -89 38 -415 151 -459 161 -11 2
-47 12 -80 23 -105 34 -425 113 -546 134 -94 17 -150 27 -180 32 -19 3 -46 7
-60 10 -47 9 -85 14 -175 25 -49 6 -106 12 -125 15 -19 2 -73 7 -120 11 -47 4
-103 9 -125 11 -48 5 -702 13 -707 8z"/>
</g>
</svg>
